<svg xmlns="http://www.w3.org/2000/svg">
<defs>
<font horiz-adv-x="1166" ><font-face
    font-family="Magettas DEMO"
    units-per-em="2048"
    panose-1="2 0 5 0 0 0 0 0 0 0"
    ascent="1939"
    descent="-669"
    alphabetic="0" />
<missing-glyph horiz-adv-x="1547" d="M100 -282V1428H1435V-282H100ZM135 -242H1399V1398H135V-242ZM725 471H728L739 470V452Q741 382 741 326L734 324H728Q725 395 725 462V465V471ZM1224 471H1225L1239 470Q1238 461 1238 457Q1238 402 1241 326L1230 324H1226Q1224
382 1223 453Q1224 465 1224 471ZM790 466H794Q794 464 801 454Q797 436 797 424V406Q797 362 812 348H813Q834 348 848 465H850Q862 461 863 461Q857 403 857 375Q857 344 869 344Q871 328 871 324H863Q850 324 843 356H842Q831 328 815 328H810Q790 328 783 389Q782
393 782 411V422Q782 447 790 466ZM1094 466H1100Q1112 466 1128 438Q1140 416 1140 394V385Q1140 348 1100 327Q1093 324 1086 324H1079Q1049 324 1044 367V376Q1044 426 1084 464Q1092 466 1094 466ZM249 462H258Q286 457 286 422Q286 388 253 373Q241 368 226
366V329H225Q220 329 211 332V366H206L201 367Q201 378 206 386H211V386Q211 427 205 427Q199 434 199 438Q217 462 249 462ZM1059 376V368Q1059 347 1084 344Q1106 344 1121 371Q1126 379 1126 389V392Q1126 419 1100 445Q1097 445 1097 447Q1080 447 1062 397Q1059
386 1059 376ZM224 435Q225 400 225 388Q226 388 226 386Q255 392 263 403Q271 413 271 421Q271 439 256 442H250Q224 439 224 435ZM404 438Q423 438 432 389Q431 389 417 385Q411 418 404 418Q387 409 384 343Q385 329 385 328Q375 326 370 326Q357 395 357 413Q369
415 372 415V414Q372 410 375 395H376Q386 438 404 438ZM537 432Q557 432 570 400Q572 391 572 383V380Q572 344 537 327Q532 326 528 326Q501 330 501 364Q501 414 526 429Q528 430 537 432ZM614 432Q633 432 650 343Q651 343 651 336Q643 329 639 329Q624 391
616 409Q607 396 598 339Q597 339 593 329H586Q579 329 577 386Q575 400 575 409Q582 411 589 411Q592 394 592 391H593Q600 432 614 432ZM1185 432Q1201 432 1220 336Q1211 329 1207 329Q1192 395 1183 409Q1177 397 1164 335Q1161 329 1160 329H1154Q1147 329

<glyph unicode=" " glyph-name="space" horiz-adv-x="538" />
<glyph unicode="!" glyph-name="exclam" horiz-adv-x="526" d="M100 1460H426V840L386 520H140L100 840V1460ZM341 368T395 314Q449 260 449 183Q449 107 395 53Q341 -1 264 -1Q188 -1 134 53Q80 107 80 183Q80 260 134 314Q188 368 264 368Q341 368 395 314Z" />
<glyph unicode="&quot;" glyph-name="quotedbl" horiz-adv-x="977" d="M100 1490H406V1177L356 804H150L100 1177V1490ZM548 1490H854V1177L804 804H598L548 1177V1490Z" />
<glyph unicode="#" glyph-name="numbersign" horiz-adv-x="1512" d="M398 823H74V1114H456L532 1489H843L551 34L544 0H232L305 362H74V653H364L398 823ZM930 1114L1005 1489H1317L1242 1114H1427V823H1183L1149 653H1427V362H1091L1025 34L1018 0H706L779 362H680L739
653H838L872 823H773L831 1114H930Z" />
<glyph unicode="$" glyph-name="dollar" horiz-adv-x="1275" d="M556 390V581H534Q346 581 213 714Q80 847 80 1035Q80 1223 213 1356Q346 1489 534 1489H545V1766H801V1489H1101V1163H785V975H556V1163H534Q481 1163 444 1125Q406 1088 406 1035Q406 982 444
945Q481 908 534 908H556L785 907Q958 899 1082 775Q1215 642 1215 454Q1215 266 1082 133Q963 14 801 2V-286H545V0H132V326H785Q823 335 851 364Q889 401 889 454Q889 507 851 544Q823 572 785 579V390H556Z" />
<glyph unicode="%" glyph-name="percent" horiz-adv-x="1492" d="M959 1500L201 -16H530L1289 1500H959ZM384 1100Q347 1100 322 1125T297 1187Q297 1223 322 1248T384 1274Q420 1274 445 1249T470 1187Q470 1151 445 1126T384 1100ZM501 903T584 986T667 1187Q667
1304 584 1387T384 1470Q266 1470 183 1387T100 1187Q100 1069 183 986T384 903Q501 903 584 986ZM1109 195Q1072 195 1047 220T1022 282Q1022 318 1047 343T1109 369Q1145 369 1170 344T1195 282Q1195 246 1170 221T1109 195ZM1226 -2T1309 81T1392 282Q1392 399
1309 482T1109 565Q991 565 908 482T825 282Q825 164 908 81T1109 -2Q1226 -2 1309 81Z" />
<glyph unicode="&amp;" glyph-name="ampersand" horiz-adv-x="1428" d="M711 1058Q775 1126 774 1186Q773 1244 740 1275Q701 1310 634 1309Q567 1308 528 1274Q499 1246 498 1198Q496 1105 609 971Q683 877 780 770L956 583Q912 454 829 335Q680 481 556 623Q440
539 398 425Q372 358 385 301Q396 248 435 214Q504 155 632 155Q778 155 891 274Q1004 419 1047 608L1072 738L1331 692L1308 562Q1281 417 1232 312L1421 124L1228 -57L1081 91Q890 -110 632 -110Q406 -110 263 15Q156 107 126 245Q98 378 150 517Q218 699 386
826Q230 1012 234 1203Q237 1365 351 1469Q463 1571 630 1573Q803 1575 919 1469Q1035 1361 1037 1190Q1040 1024 905 878Q876 847 845 821Q764 913 669 1017Q691 1037 711 1058Z" />
<glyph unicode="&apos;" glyph-name="quotesingle" horiz-adv-x="515" d="M100 1490H406V1177L356 804H150L100 1177V1490Z" />
<glyph unicode="(" glyph-name="parenleft" horiz-adv-x="666" d="M586 238V-50Q358 -50 220 121Q80 295 80 578V910Q80 1193 220 1367Q359 1539 586 1539V1251Q488 1231 427 1135Q364 1057 364 910V578Q364 431 427 353Q488 258 586 238Z" />
<glyph unicode=")" glyph-name="parenright" horiz-adv-x="666" d="M178 258T239 353Q302 431 302 578V910Q302 1057 239 1135Q178 1231 80 1251V1539Q307 1539 446 1367Q586 1193 586 910V578Q586 295 446 121Q308 -50 80 -50V238Q178 258 239 353Z" />
<glyph unicode="*" glyph-name="asterisk" horiz-adv-x="1218" d="M80 986L181 1297L446 1211V1489H772V1211L1037 1297L1138 986L874 900L941 808L1037 675L772 483L676 616L609 708L542 616L446 483L181 675L277 808L344 900L236 936L80 986Z" />
<glyph unicode="+" glyph-name="plus" horiz-adv-x="1310" d="M80 561V889H491V1300H819V889H1230V561H819V150H491V561H80Z" />
<glyph unicode="," glyph-name="comma" horiz-adv-x="529" d="M178 0Q154 13 134 33Q80 87 80 163Q80 240 134 294Q188 348 264 348Q341 348 395 294Q449 240 449 163Q449 109 422 66L238 -294H65L178 0Z" />
<glyph unicode="-" glyph-name="hyphen" horiz-adv-x="788" d="M80 470V758H708V470H80Z" />
<glyph unicode="." glyph-name="period" horiz-adv-x="1547" d="M100 -282V1428H1435V-282H100ZM135 -242H1399V1398H135V-242ZM725 471H728L739 470V452Q741 382 741 326L734 324H728Q725 395 725 462V465V471ZM1224 471H1225L1239 470Q1238 461 1238 457Q1238
402 1241 326L1230 324H1226Q1224 382 1223 453Q1224 465 1224 471ZM790 466H794Q794 464 801 454Q797 436 797 424V406Q797 362 812 348H813Q834 348 848 465H850Q862 461 863 461Q857 403 857 375Q857 344 869 344Q871 328 871 324H863Q850 324 843 356H842Q831
328 815 328H810Q790 328 783 389Q782 393 782 411V422Q782 447 790 466ZM1094 466H1100Q1112 466 1128 438Q1140 416 1140 394V385Q1140 348 1100 327Q1093 324 1086 324H1079Q1049 324 1044 367V376Q1044 426 1084 464Q1092 466 1094 466ZM249 462H258Q286 457
286 422Q286 388 253 373Q241 368 226 366V329H225Q220 329 211 332V366H206L201 367Q201 378 206 386H211V386Q211 427 205 427Q199 434 199 438Q217 462 249 462ZM1059 376V368Q1059 347 1084 344Q1106 344 1121 371Q1126 379 1126 389V392Q1126 419 1100 445Q1097
445 1097 447Q1080 447 1062 397Q1059 386 1059 376ZM224 435Q225 400 225 388Q226 388 226 386Q255 392 263 403Q271 413 271 421Q271 439 256 442H250Q224 439 224 435ZM404 438Q423 438 432 389Q431 389 417 385Q411 418 404 418Q387 409 384 343Q385 329 385
328Q375 326 370 326Q357 395 357 413Q369 415 372 415V414Q372 410 375 395H376Q386 438 404 438ZM537 432Q557 432 570 400Q572 391 572 383V380Q572 344 537 327Q532 326 528 326Q501 330 501 364Q501 414 526 429Q528 430 537 432ZM614 432Q633 432 650 343Q651
343 651 336Q643 329 639 329Q624 391 616 409Q607 396 598 339Q597 339 593 329H586Q579 329 577 386Q575 400 575 409Q582 411 589 411Q592 394 592 391H593Q600 432 614 432ZM1185 432Q1201 432 1220 336Q1211 329 1207 329Q1192 395 1183 409Q1177 397 1164
335Q1161 329 1160 329H1154Q1147 329 1144 409Q1150 411 1159 411Q1160 392 1160 389H1161Q1168 432 1185 432ZM472 430Q490 425 490 413V412Q490 410 480 404H479Q475 411 466 411Q453 411 450 400Q450 395 479 394Q499 383 499 360Q499 335 479 326L471 324H466Q442
324 432 347V348Q433 351 441 359H442Q454 344 470 344Q484 348 484 360Q480 375 463 375Q435 375 435 397V400Q435 430 472 430ZM912 430Q925 430 932 412V411Q921 404 918 404Q918 410 907 411Q895 411 890 401V400Q890 395 919 394Q938 385 938 358Q938 332
914 324H906Q883 324 871 347V348Q879 359 881 359H882Q894 344 909 344Q923 348 923 360Q923 372 907 375Q882 375 877 386Q875 397 875 400Q875 430 912 430ZM1249 429V429Q1262 427 1263 427Q1262 409 1262 401V392Q1264 357 1275 357H1276Q1294 370 1294 424V424H1309V421Q1316
343 1316 333Q1316 287 1286 277Q1284 277 1281 277H1276Q1258 277 1253 296Q1252 301 1252 306V306Q1252 321 1255 321H1256Q1265 315 1268 315L1267 306Q1267 298 1276 297H1278Q1301 297 1301 339Q1301 344 1300 360H1299Q1291 336 1273 336H1272Q1253 336 1247
383V400Q1247 410 1249 429ZM331 428Q354 424 354 406V400Q354 380 315 364H305Q305 353 322 348Q333 348 343 366H347Q355 354 355 351Q338 329 325 329H318Q292 329 288 374Q288 414 320 427L331 428ZM681 428H692Q719 419 719 383Q718 362 718 348Q718 348 720
332Q711 324 707 324H706L704 335Q692 327 681 327H674Q652 330 652 348V356Q652 386 684 391Q695 390 704 385V386Q700 411 687 411Q678 411 669 401H666Q664 402 658 412V414Q670 428 681 428ZM983 428Q1007 424 1007 405Q1007 376 965 364H958V362Q965 348 974
348Q984 348 997 366H998Q999 366 1007 354Q1007 345 986 332Q982 329 977 329H970Q946 329 941 373Q941 413 971 427L983 428ZM516 365Q518 347 528 347H531Q555 354 557 382V385Q551 411 537 411H535Q522 411 517 379Q516 372 516 365ZM305 385Q324 385 338 403V405Q331
407 329 407Q313 407 305 388V385ZM958 385H961Q978 385 992 404Q986 407 983 407H980Q964 407 958 386V385ZM667 354V351Q667 348 677 345Q694 345 702 362Q694 369 683 369Q667 366 667 354ZM618 254Q631 254 633 220V217L627 216H625Q622 237 617 237Q611 237
609 218Q610 216 610 214Q610 204 612 175Q617 178 621 178H624V163L613 160Q618 103 618 91H607Q603 145 603 156H602Q597 154 592 154V171Q598 171 602 173Q599 194 599 225Q602 254 616 254H618ZM816 254Q828 254 832 217L824 216H822V217Q822 232 815 237Q807
232 807 222Q807 214 810 176Q810 176 810 175Q815 178 820 178H821L822 170V163Q821 163 810 160L812 157Q812 145 816 91H805Q805 97 801 156Q792 154 789 154V171L800 172Q797 218 797 224Q797 254 816 254ZM709 237H713H719V228Q719 167 722 96H711Q709 161
709 198V237ZM735 237H736H744V207Q744 175 747 96H736Q733 162 733 232V235Q733 237 735 237ZM529 234Q537 232 539 232Q537 203 537 190H539L551 192V175Q550 175 537 173L541 99L539 97H531Q528 126 526 172H513V188L524 189H526V207Q526 234 529 234ZM994 234Q997
234 1006 232Q1003 219 1003 203V190H1006L1018 192V175H1015L1003 173L1008 99L1003 97H997Q994 159 994 172H979L980 180V188L991 189H992V190Q992 211 994 234ZM1140 234Q1143 234 1152 232Q1150 214 1150 198V190H1152L1164 192V184V175Q1163 175 1150 173V167Q1150
152 1154 99L1152 97H1143L1139 172H1126V188L1137 189H1138L1140 234ZM404 231H414Q428 231 437 208Q431 202 431 199H428Q419 214 407 214Q390 214 372 188Q363 169 363 154V149Q363 120 387 114Q389 113 395 113Q426 116 426 133V143Q422 146 414 146H404V163Q432
163 437 154Q439 147 439 145Q437 120 437 116Q437 105 441 90Q440 90 433 85H432Q428 85 426 107Q420 99 397 95H395Q357 95 352 146V150Q352 208 397 229L404 231ZM866 199Q889 199 900 161V147Q900 113 866 97L859 96Q843 96 835 116Q833 127 833 133V137Q833
178 852 194Q860 199 866 199ZM943 199Q958 199 977 105H976Q971 101 967 101Q952 168 943 180Q936 173 920 101L918 100H914Q908 100 905 176L913 178H915Q918 162 918 145H919Q928 199 943 199ZM487 195Q507 191 507 175Q508 175 508 173Q508 150 473 137Q468
134 458 134V133Q458 122 475 116H476Q486 116 499 132H502Q502 130 508 123V122Q494 100 479 100H473Q454 100 446 132V147Q446 180 472 193Q477 195 487 195ZM1083 195H1094Q1110 195 1118 167Q1120 151 1121 149Q1120 143 1118 123Q1120 119 1120 100L1114 96H1111L1108
108Q1098 97 1083 97H1079Q1058 100 1058 117V125Q1061 157 1088 157Q1100 157 1109 149V152Q1109 177 1091 181H1088Q1082 181 1071 173H1070Q1069 173 1064 180V182Q1074 195 1083 195ZM634 193Q636 193 645 190Q645 116 659 116Q678 128 687 182Q688 187 688
193H689Q692 193 699 190Q696 166 696 145V133Q696 124 701 114Q696 107 696 103H694Q687 107 686 129H684Q680 114 665 100H656Q636 100 636 175V185L634 193ZM843 137Q845 114 858 114H859Q875 114 886 139Q889 147 889 150Q883 181 867 181H863Q848 181 843
137ZM457 150Q480 150 496 172Q494 178 485 178H482Q463 178 457 150ZM1068 122Q1071 114 1079 114H1085Q1099 114 1107 132Q1098 140 1090 140H1088Q1068 137 1068 122ZM507 45Q508 45 524 41Q520 3 519 -51Q519 -85 529 -120Q518 -130 517 -130H516Q513 -130
510 -117H508Q508 -125 487 -133Q454 -133 440 -91Q437 -79 437 -63Q437 -15 471 -5H475Q489 -5 504 -21V-20Q504 -12 507 45ZM316 39L331 34Q329 11 329 -2V-16Q342 -13 344 -13Q346 -33 346 -37H344Q335 -38 329 -38Q332 -101 334 -129Q322 -131 317 -131V-130Q312
-69 312 -42L310 -40H296V-16H311V-7Q311 39 316 39ZM674 39H675L690 34Q688 6 688 -11V-16Q702 -13 704 -13L705 -27V-37Q689 -38 689 -39Q689 -62 694 -129Q681 -131 677 -131V-130Q672 -55 672 -40H654V-16H671Q671 18 674 39ZM546 36Q555 36 557 22V21Q557
10 549 5H542Q534 10 534 22Q536 36 546 36ZM607 -5Q632 -5 648 -43Q650 -54 650 -60V-69Q650 -109 611 -129Q607 -131 598 -131Q571 -131 566 -90V-76Q566 -25 596 -7Q606 -5 607 -5ZM800 -5H805Q816 -5 816 -8V-10Q825 -5 835 -5Q860 -5 868 -49Q868 -60 869
-63Q866 -115 838 -127L830 -128H820L821 -136Q821 -142 822 -176H805Q800 -44 800 -5ZM915 -5Q938 -5 954 -40Q958 -53 958 -64Q958 -107 920 -129Q912 -131 906 -131Q884 -131 875 -104Q873 -92 873 -81Q873 -27 903 -7Q914 -5 915 -5ZM1117 -5Q1141 -5 1156
-40Q1160 -48 1160 -59V-67Q1160 -110 1121 -129Q1117 -131 1108 -131Q1080 -131 1076 -90V-76Q1076 -25 1106 -7Q1116 -5 1117 -5ZM1211 -5Q1228 -5 1238 -63H1239Q1247 -5 1266 -5H1267Q1291 -5 1307 -123H1305Q1294 -128 1292 -128H1291Q1272 -30 1266 -30Q1256
-52 1249 -112Q1246 -122 1239 -122Q1231 -122 1228 -107Q1215 -31 1209 -31Q1193 -89 1193 -124Q1183 -128 1176 -128V-127L1164 -23Q1177 -17 1181 -17Q1183 -25 1185 -48H1187Q1196 -5 1211 -5ZM258 -6Q282 -11 282 -27V-28Q281 -30 270 -37H267Q267 -30 254
-29H253Q240 -29 233 -39V-43Q233 -49 264 -49Q291 -61 291 -87V-92Q291 -120 269 -130Q264 -133 259 -133H250Q227 -133 211 -108Q211 -103 222 -92H225Q233 -110 255 -110Q273 -110 273 -90Q273 -75 252 -72Q225 -72 220 -60Q216 -52 216 -48V-40Q216 -6 258
-6ZM713 -7Q725 -11 728 -11Q727 -34 727 -45V-51Q727 -84 739 -95H744Q766 -77 766 -23V-13H783V-14Q791 -103 791 -117V-127Q791 -171 763 -187Q753 -191 747 -191Q725 -191 718 -171Q716 -167 716 -162V-153Q716 -138 720 -138L734 -145L733 -153V-157Q733 -165
744 -167H748Q768 -167 773 -134Q774 -130 774 -122V-102L773 -89H772Q762 -119 743 -119H741Q718 -119 711 -69Q710 -61 710 -49V-40Q710 -7 713 -7ZM1033 -8H1041Q1047 -8 1056 -17Q1067 -29 1067 -35Q1056 -48 1055 -48V-48Q1044 -33 1037 -33H1035Q1023 -38
1017 -61L1013 -82Q1013 -104 1027 -106H1030Q1041 -106 1064 -90H1065Q1071 -110 1071 -112Q1046 -130 1024 -130Q1001 -130 996 -84Q996 -50 1015 -20Q1027 -8 1033 -8ZM537 -10H549L555 -11Q555 -14 554 -19Q555 -86 558 -128H540L539 -120Q537 -52 537 -10ZM350
-11Q367 -16 367 -17V-37Q367 -104 379 -104H384Q401 -85 408 -49Q413 -39 414 -11H416Q431 -13 431 -17Q428 -59 428 -76V-86Q428 -96 433 -106Q433 -112 423 -124V-124Q411 -112 411 -99H410Q399 -128 382 -128H379Q350 -128 350 -35V-11ZM454 -67Q454 -101 484
-107H487Q499 -107 502 -81V-78Q502 -42 481 -30L475 -29H473Q456 -29 454 -64V-67ZM583 -82Q583 -104 598 -107H602Q617 -107 631 -78Q633 -74 633 -69V-60Q626 -29 609 -29H607Q586 -29 583 -82ZM816 -37Q816 -40 819 -104L826 -105Q848 -105 852 -63Q849 -29
835 -29H834Q824 -29 816 -37ZM890 -82V-87Q890 -104 905 -107H907Q923 -107 937 -81Q941 -73 941 -63Q935 -29 913 -29Q894 -29 890 -82ZM1092 -82Q1092 -107 1109 -107H1112Q1126 -107 1141 -77Q1143 -71 1143 -67V-60Q1135 -29 1118 -29H1117Q1097 -29 1092
-82ZM977 -96Q986 -96 989 -110V-115Q986 -128 977 -128Q968 -128 966 -113Q967 -96 977 -96ZM717 1368V1126H456Q402 1126 353 1088V1098Q500 1368 717 1368ZM800 1368H810Q942 1368 1089 1219Q1145 1151 1145 1126H800V1368ZM428 1042H717V948Q682 967 642 967H428Q409
967 409 986V1023Q412 1042 428 1042ZM800 1042H1183L1192 948V930Q1192 745 1061 632H894Q800 644 800 725V1042ZM325 967H334Q334 895 474 883H651Q717 883 717 818V715Q717 632 614 632H456Q325 752 325 911V967ZM754 604H763Q824 548 950 548V538Q842 501 763
501H754Q674 501 567 538V548Q699 548 754 604Z" />
<glyph unicode="/" glyph-name="slash" horiz-adv-x="670" d="M660 1489L291 0H10L380 1489H660Z" />
<glyph unicode="0" glyph-name="zero" horiz-adv-x="1428" d="M1060 1489T1226 1234Q1347 1049 1348 742Q1348 442 1227 256Q1062 2 717 1Q367 0 200 256Q80 441 80 742Q81 1089 237 1282Q405 1489 714 1489Q1060 1489 1226 1234ZM883 1161T714 1161Q560 1161
490 1075Q407 973 406 742Q406 538 474 434Q544 326 716 327Q884 328 953 434Q1021 539 1021 742Q1021 950 952 1055Q883 1161 714 1161Z" />
<glyph unicode="1" glyph-name="one" horiz-adv-x="892" d="M686 0H358V1161H10V1489H522Q590 1489 638 1441Q686 1393 686 1325V0Z" />
<glyph unicode="2" glyph-name="two" horiz-adv-x="1309" d="M139 1161V1489H640Q885 1489 1041 1382Q1229 1254 1229 1035Q1229 778 1051 677Q944 616 659 582Q548 565 496 547Q408 517 408 454V328H1229V0H244Q176 0 128 48Q80 96 80 164V454Q80 711 258 812Q365
873 620 907Q771 925 826 947Q901 977 901 1042Q901 1116 811 1143Q753 1161 640 1161H139Z" />
<glyph unicode="3" glyph-name="three" horiz-adv-x="1206" d="M80 1161V1489H661Q852 1489 974 1366Q1095 1245 1095 1054Q1095 905 1021 797Q1126 674 1126 473Q1126 254 1000 127Q872 0 653 0H80V328H653Q737 328 768 359Q799 389 799 473Q799 557 768 588Q737
619 653 619H151V947H661Q716 947 743 973Q768 998 768 1054Q768 1110 743 1135Q716 1161 661 1161H80Z" />
<glyph unicode="4" glyph-name="four" horiz-adv-x="1386" d="M710 284H249V285Q191 285 146 322Q94 364 87 432Q80 499 123 551L827 1418Q876 1489 962 1489Q1030 1489 1078 1441Q1126 1393 1126 1325V567H1336V284H1126V0H798V968L486 567H710V284Z" />
<glyph unicode="5" glyph-name="five" horiz-adv-x="1216" d="M1079 1489V1161H408V971H562Q824 971 981 854Q1159 722 1159 485Q1159 262 972 121Q812 0 570 0H80V328H570Q831 328 831 485Q831 583 751 618Q694 643 562 643H244Q176 643 128 691Q80 739 80 807V1325Q80
1393 128 1441Q176 1489 244 1489H1079Z" />
<glyph unicode="6" glyph-name="six" horiz-adv-x="1324" d="M525 665V993Q539 994 554 994H771Q986 994 1119 848Q1244 710 1244 489V474Q1244 254 1117 128Q990 0 771 0H554Q334 0 207 128Q83 252 80 465V1054Q80 1246 201 1367Q324 1489 515 1489H1119V1161H515Q459
1161 433 1135Q408 1110 408 1054V474Q408 390 439 359Q470 328 554 328H771Q855 328 886 359Q916 390 916 474V489Q916 584 897 616Q868 666 771 666H554Q539 666 525 665Z" />
<glyph unicode="7" glyph-name="seven" horiz-adv-x="1299" d="M1119 0H792V1161H10V1489H955Q1023 1489 1071 1441Q1119 1393 1119 1325V0Z" />
<glyph unicode="8" glyph-name="eight" horiz-adv-x="1324" d="M778 1496Q962 1496 1092 1366Q1213 1245 1213 1054Q1213 883 1097 789Q1244 696 1244 473Q1244 254 1117 127Q990 0 770 0H553Q334 0 207 127Q80 254 80 473Q80 696 227 789Q111 883 111 1054Q111
1245 232 1366Q362 1496 546 1496H778ZM546 1169Q494 1169 463 1126Q435 1087 435 1031Q435 975 463 936Q494 893 546 893H778Q830 893 861 936Q888 975 888 1031Q888 1087 861 1126Q830 1169 778 1169H546ZM553 642Q481 642 438 590Q399 542 399 473Q399 405 438
357Q481 304 553 304H770Q843 304 886 357Q924 405 924 473Q924 542 886 590Q843 642 770 642H553Z" />
<glyph unicode="9" glyph-name="nine" horiz-adv-x="1324" d="M799 824V496Q785 495 770 495H553Q338 495 205 641Q80 779 80 1000V1015Q80 1235 207 1361Q334 1489 553 1489H770Q990 1489 1117 1361Q1241 1237 1244 1024V435Q1244 243 1123 122Q1000 0 809 0H165V328H809Q865
328 891 354Q916 379 916 435V1015Q916 1099 885 1130Q854 1161 770 1161H553Q469 1161 438 1130Q408 1099 408 1015V1000Q408 905 427 873Q456 823 553 823H770Q785 823 799 824Z" />
<glyph unicode=":" glyph-name="colon" horiz-adv-x="529" d="M341 348T395 294Q449 240 449 163Q449 87 395 33Q341 -21 264 -21Q188 -21 134 33Q80 87 80 163Q80 240 134 294Q188 348 264 348Q341 348 395 294ZM341 1082T395 1028Q449 974 449 897Q449 821 395
767Q341 713 264 713Q188 713 134 767Q80 821 80 897Q80 974 134 1028Q188 1082 264 1082Q341 1082 395 1028Z" />
<glyph unicode=";" glyph-name="semicolon" horiz-adv-x="529" d="M178 0Q154 13 134 33Q80 87 80 163Q80 240 134 294Q188 348 264 348Q341 348 395 294Q449 240 449 163Q449 109 422 66L238 -294H65L178 0ZM341 1082T395 1028Q449 974 449 897Q449 821 395 767Q341
713 264 713Q188 713 134 767Q80 821 80 897Q80 974 134 1028Q188 1082 264 1082Q341 1082 395 1028Z" />
<glyph unicode="&lt;" glyph-name="less" horiz-adv-x="1246" d="M1147 99L163 566Q71 610 69 713Q69 817 162 863L1147 1332V973L586 715L1147 455V99Z" />
<glyph unicode="=" glyph-name="equal" horiz-adv-x="1263" d="M100 290V586H1152V290H100ZM100 810V1106H1152V810H100Z" />
<glyph unicode="&gt;" glyph-name="greater" horiz-adv-x="1246" d="M79 455L640 715L79 973V1332L1064 863Q1157 817 1157 713Q1155 610 1063 566L79 99V455Z" />
<glyph unicode="?" glyph-name="question" horiz-adv-x="1076" d="M408 929H80V1031Q80 1221 214 1355Q348 1489 538 1489Q728 1489 862 1355Q996 1221 996 1031Q996 760 813 633Q766 600 687 567Q630 543 630 532V425Q466 451 302 425V532Q302 639 359 700Q393
736 485 779Q576 823 611 860Q668 922 668 1031Q668 1085 630 1123Q592 1161 538 1161Q484 1161 446 1123Q408 1085 408 1031V929ZM554 348T608 294Q662 240 662 163Q662 87 608 33Q554 -21 477 -21Q401 -21 347 33Q293 87 293 163Q293 240 347 294Q401 348 477
348Q554 348 608 294Z" />
<glyph unicode="@" glyph-name="at" horiz-adv-x="2080" d="M898 30Q728 55 621 198Q495 364 519 592Q521 761 664 915Q796 1058 977 1080Q1184 1098 1265 976L1274 1029L1530 997L1435 207Q1544 236 1623 342Q1737 493 1695 717Q1655 928 1512 1066Q1316 1255
1035 1255Q745 1256 546 1057Q345 857 345 571Q345 332 466 159Q586 -14 809 -96Q1063 -189 1347 -133Q1636 -75 1843 133L2037 -40Q1772 -308 1404 -381Q1044 -454 715 -333Q416 -224 248 13Q80 251 80 571Q80 958 355 1233Q639 1517 1052 1510Q1432 1504 1700
1246Q1910 1043 1959 743Q2011 424 1838 193Q1704 15 1506 -39Q1394 -69 1301 -36Q1188 5 1174 78L1210 548V553Q1218 671 1149 761Q1093 835 1010 827Q929 820 862 747Q781 658 774 546Q765 439 835 348Q891 274 974 272Q1050 269 1142 297L1120 43Q1007 15 898
30Z" />
<glyph unicode="A" glyph-name="A" horiz-adv-x="1389" d="M937 323H536L616 585H857L695 1117L354 0H10L397 1256Q430 1355 504 1417Q589 1489 695 1489Q801 1489 886 1417Q960 1355 993 1256L1379 0H1035L937 323Z" />
<glyph unicode="B" glyph-name="B" horiz-adv-x="1272" d="M1017 788Q1249 690 1249 442Q1249 255 1121 127Q993 0 774 0H504V328H774Q847 328 889 378Q928 423 928 489Q928 554 889 600Q847 650 774 650H504V916H711Q764 916 794 954Q822 989 822 1038Q822 1088
794 1123Q764 1161 711 1161H408V0H80V1170Q80 1302 173 1395Q267 1489 449 1489H661Q871 1489 983 1410Q1083 1339 1124 1220Q1163 1107 1136 990Q1107 868 1017 788Z" />
<glyph unicode="C" glyph-name="C" horiz-adv-x="1168" d="M1119 1480V1154H972Q607 1155 513 1094Q462 1061 436 996Q398 904 398 740Q398 585 431 495Q455 429 500 395Q591 325 972 326H1119V0H972Q719 0 606 16Q421 44 300 137Q182 227 125 381Q70 530 70 740Q70
966 133 1120Q199 1280 335 1367Q452 1444 628 1467Q735 1480 972 1480H1119Z" />
<glyph unicode="D" glyph-name="D" horiz-adv-x="1386" d="M504 328H662Q768 328 845 394Q915 455 950 559Q979 644 979 744Q979 844 950 930Q915 1034 845 1094Q768 1161 662 1161H408V0H80V1170Q80 1302 173 1395Q267 1489 399 1489H662Q886 1489 1046 1357Q1191
1238 1260 1034Q1306 894 1306 744Q1306 594 1260 455Q1191 251 1046 132Q886 0 662 0H504V328Z" />
<glyph unicode="E" glyph-name="E" horiz-adv-x="1140" d="M1058 328V0H399Q267 0 173 93Q80 187 80 319V1170Q80 1302 173 1395Q267 1489 399 1489H1066V1161H408V937H1030V629H408V328H1058Z" />
<glyph unicode="F" glyph-name="F" horiz-adv-x="982" d="M408 0H80V1170Q80 1302 173 1395Q267 1489 399 1489H958V1161H408V927H917V629H408V0Z" />
<glyph unicode="G" glyph-name="G" horiz-adv-x="1355" d="M1275 895V686Q1275 516 1245 412Q1206 278 1101 173Q928 0 677 0Q427 0 254 173Q80 347 80 630V862Q80 1145 254 1319Q426 1491 708 1491H1104V1163H708Q562 1163 486 1087Q408 1009 408 862V630Q408
483 486 405Q563 329 680 329Q793 330 871 408Q947 484 959 598H684V895H1275Z" />
<glyph unicode="H" glyph-name="H" horiz-adv-x="1223" d="M815 947V1489H1143V0H815V619H408V0H80V1489H408V947H815Z" />
<glyph unicode="I" glyph-name="I" horiz-adv-x="548" d="M438 0H110V1489H438V0Z" />
<glyph unicode="J" glyph-name="J" horiz-adv-x="877" d="M10 0V328H222Q332 328 386 383Q443 440 443 551V1489H771V551Q771 306 618 152Q467 0 222 0H10Z" />
<glyph unicode="K" glyph-name="K" horiz-adv-x="1273" d="M408 0H80V1489H408V0ZM866 0L505 528Q446 614 440 626Q414 677 414 744Q414 812 440 862Q446 874 505 960L866 1489H1262L775 776Q753 740 775 713L1262 0H866Z" />
<glyph unicode="L" glyph-name="L" horiz-adv-x="1073" d="M1051 326V0H399Q266 0 173 93Q80 186 80 318V1488H408V326H1051Z" />
<glyph unicode="M" glyph-name="M" horiz-adv-x="1680" d="M60 0L161 1220Q167 1340 245 1415Q316 1483 418 1489Q520 1489 600 1435Q688 1368 713 1243L840 602L967 1243Q990 1364 1078 1432Q1159 1490 1261 1490Q1363 1486 1434 1418Q1513 1344 1519 1220L1620
0H1293L1210 1008L1064 340Q1046 245 980 191Q919 141 840 141Q761 141 700 191Q634 245 616 340L470 1008L387 0H60Z" />
<glyph unicode="N" glyph-name="N" horiz-adv-x="1347" d="M408 0H80V1169Q80 1301 158 1391Q231 1475 339 1489Q450 1504 543 1438Q647 1365 691 1214L939 369V1489H1267V320Q1267 184 1189 94Q1116 11 1007 -2Q896 -15 803 51Q699 125 656 275L408 1120V0Z" />
<glyph unicode="O" glyph-name="O" horiz-adv-x="1417" d="M992 1489T1163 1317Q1337 1144 1337 860V628Q1337 345 1163 171Q992 0 708 0Q425 0 254 171Q80 345 80 628V860Q80 1143 254 1317Q426 1489 708 1489Q992 1489 1163 1317ZM856 1161T708 1161Q562 1161
486 1085Q408 1007 408 860V628Q408 481 486 403Q561 328 708 328Q856 328 931 403Q1009 481 1009 628V860Q1009 1008 931 1086Q856 1161 708 1161Z" />
<glyph unicode="P" glyph-name="P" horiz-adv-x="1178" d="M586 1489Q815 1489 976 1327Q1138 1166 1138 937Q1138 708 976 547Q815 385 586 385H514V713H586Q679 713 745 778Q810 844 810 937Q810 1030 745 1096Q679 1161 586 1161H408V0H80V1170Q80 1302 173
1396Q267 1489 399 1489H586Z" />
<glyph unicode="Q" glyph-name="Q" horiz-adv-x="1417" d="M856 1161T709 1161Q562 1161 486 1085Q408 1007 408 860V628Q408 480 486 403Q560 328 705 327L588 481L781 627L1271 -16L1079 -163L931 31Q829 0 709 0Q425 0 254 171Q80 345 80 628V860Q80 1143 254
1317Q426 1489 709 1489Q992 1489 1163 1318Q1337 1144 1337 860V628Q1337 387 1208 221L991 505Q1009 560 1009 628V860Q1009 1008 931 1086Q856 1161 709 1161Z" />
<glyph unicode="R" glyph-name="R" horiz-adv-x="1326" d="M931 0L562 447Q482 531 482 610Q482 692 540 750Q598 808 680 808H786Q869 808 901 839Q932 870 932 985Q932 1099 901 1130Q869 1161 786 1161H408V0H80V1170Q80 1302 173 1396Q267 1489 399 1489H786Q1005
1489 1132 1362Q1259 1235 1259 1015Q1259 796 1132 669Q1038 575 867 549L1320 0H931Z" />
<glyph unicode="S" glyph-name="S" horiz-adv-x="1255" d="M741 898Q929 898 1062 765Q1195 632 1195 454Q1195 266 1062 133Q929 0 741 0H92V326H741Q794 326 831 364Q869 401 869 454Q869 517 831 554Q794 591 741 591H514Q326 591 193 724Q60 857 60 1035Q60
1223 193 1356Q326 1489 514 1489H1121V1163H514Q461 1163 424 1125Q386 1088 386 1035Q386 972 424 935Q461 898 514 898H741Z" />
<glyph unicode="T" glyph-name="T" horiz-adv-x="1192" d="M1172 1489V1163H760V0H432V1163H20V1489H1172Z" />
<glyph unicode="U" glyph-name="U" horiz-adv-x="1355" d="M947 1489H1275V628Q1275 361 1111 186Q938 1 677 0Q437 0 267 162Q81 340 80 628V1489H408V628Q408 480 492 399Q567 328 677 328V327Q796 327 872 409Q947 489 947 628V1489Z" />
<glyph unicode="V" glyph-name="V" horiz-adv-x="1369" d="M354 1489L685 352L1015 1489H1359L983 233Q950 133 876 71Q791 0 685 0Q579 0 494 71Q420 133 387 233L10 1489H354Z" />
<glyph unicode="W" glyph-name="W" horiz-adv-x="1760" d="M360 1489L491 512L653 1150Q671 1245 737 1300Q807 1350 878 1350Q950 1350 1019 1300Q1085 1245 1104 1150L1266 513L1400 1489H1730L1536 256Q1509 131 1438 62Q1365 -1 1286 0Q1207 1 1131 64Q1048
132 1026 247L878 858L731 247Q698 128 624 60Q548 -1 469 0Q390 1 317 65Q237 135 221 256L30 1489H360Z" />
<glyph unicode="X" glyph-name="X" horiz-adv-x="1421" d="M20 0L64 99L297 628Q331 695 393 745Q331 794 297 861L64 1390L20 1489H378L597 993Q606 972 629 959Q663 939 711 939Q758 939 792 959Q815 972 824 993L1043 1489H1401L1357 1390L1124 861Q1090 794
1028 744Q1090 695 1124 628L1357 99L1401 0H1043L824 496Q815 517 792 531Q758 550 711 550Q663 550 629 531Q606 517 597 496L378 0H20Z" />
<glyph unicode="Y" glyph-name="Y" horiz-adv-x="1378" d="M525 508Q431 553 392 641L10 1489H354L689 770L1024 1489H1368L987 641Q947 553 853 507V0H525V508Z" />
<glyph unicode="Z" glyph-name="Z" horiz-adv-x="1323" d="M97 1161V1489H914Q1005 1489 1082 1440Q1160 1391 1200 1309Q1243 1221 1233 1128Q1221 1020 1143 951L436 328H1241V0H409Q318 0 240 49Q163 97 122 180Q80 267 90 360Q102 469 180 537L887 1161H97Z" />
<glyph unicode="[" glyph-name="bracketleft" horiz-adv-x="807" d="M727 1539V1221H398V266H727V-50H258Q174 -50 127 -5Q80 39 80 113V1375Q80 1443 128 1491Q176 1539 244 1539H727Z" />
<glyph unicode="\" glyph-name="backslash" horiz-adv-x="670" d="M290 1489L660 0H380L10 1489H290Z" />
<glyph unicode="]" glyph-name="bracketright" horiz-adv-x="807" d="M563 1539Q631 1539 679 1491Q727 1443 727 1375V113Q727 39 680 -5Q633 -50 549 -50H80V266H409V1221H80V1539H563Z" />
<glyph unicode="^" glyph-name="asciicircum" horiz-adv-x="1230" d="M80 556L467 1395Q511 1491 616 1490Q720 1490 764 1395L1150 556H829L615 1044L401 556H80Z" />
<glyph unicode="_" glyph-name="underscore" horiz-adv-x="1152" d="M-10 -276V0H1162V-276H-10Z" />
<glyph unicode="`" glyph-name="grave" horiz-adv-x="626" d="M352 1503L616 1174H328L10 1503H352Z" />
<glyph unicode="a" glyph-name="a" horiz-adv-x="1242" d="M1162 0H834V564Q833 702 777 759Q721 814 611 814Q501 814 445 759Q388 701 388 561Q388 430 445 363Q501 308 611 308Q683 308 738 325V-12Q676 -20 611 -20Q365 -20 214 131Q60 295 60 561Q60 837
214 990Q365 1122 611 1122Q857 1122 1008 990Q1160 838 1162 561V0Z" />
<glyph unicode="b" glyph-name="b" horiz-adv-x="1242" d="M80 1489H408V547Q409 419 465 363Q521 308 631 308Q741 308 797 363Q854 420 854 551Q854 681 797 739Q741 794 631 794Q559 794 504 776V1114Q565 1122 631 1122Q877 1122 1028 970Q1182 817 1182 551Q1182
285 1028 131Q877 -20 631 -20Q385 -20 234 131Q81 283 80 551V1489Z" />
<glyph unicode="c" glyph-name="c" horiz-adv-x="973" d="M893 1121V795H803Q567 795 516 779Q388 740 388 551Q388 362 515 322Q566 306 803 307H893V-19L803 -20Q434 -20 282 74Q172 142 116 257Q60 373 60 551Q60 744 127 866Q193 985 320 1049Q466 1122 803
1121H893Z" />
<glyph unicode="d" glyph-name="d" horiz-adv-x="1242" d="M1162 1489H834V547Q833 419 777 363Q721 308 611 308Q501 308 445 363Q388 420 388 551Q388 681 445 739Q501 794 611 794Q683 794 738 776V1114Q676 1122 611 1122Q365 1122 214 970Q60 817 60 551Q60
285 214 131Q365 -20 611 -20Q857 -20 1008 131Q1160 283 1162 551V1489Z" />
<glyph unicode="e" glyph-name="e" horiz-adv-x="1203" d="M810 736Q756 808 668 820Q585 830 512 791Q452 759 417 693Q383 631 383 558Q383 458 440 391Q506 316 623 316H1037V0H623Q333 0 177 202Q62 351 62 561Q62 739 145 875Q234 1018 395 1081Q499 1121
623 1121Q789 1121 938 1020Q1070 930 1131 802Q1177 705 1158 632Q1138 552 1045 526L662 417Q643 410 622 410Q566 410 527 449Q489 488 489 543Q489 590 518 626Q546 662 590 673L810 736Z" />
<glyph unicode="f" glyph-name="f" horiz-adv-x="869" d="M407 937Q407 1046 464 1104Q519 1160 627 1161H848V1487H624Q380 1485 231 1333Q80 1181 80 937V0H407V618H801V915H407V937Z" />
<glyph unicode="g" glyph-name="g" horiz-adv-x="1242" d="M834 554Q833 682 777 739Q721 794 611 794Q501 794 445 739Q388 681 388 551Q388 440 445 383Q501 328 611 328Q683 328 738 345V119Q738 77 694 55Q655 36 611 36Q329 36 214 151Q60 305 60 551Q60
817 214 970Q365 1122 611 1122Q857 1122 1008 970Q1160 818 1162 551V164Q1162 -81 1009 -235Q858 -386 612 -387V-387H246V-59H612V-60Q722 -60 777 -4Q834 53 834 164V554Z" />
<glyph unicode="h" glyph-name="h" horiz-adv-x="1231" d="M408 0H80V1489H408V1017Q524 1106 677 1106Q870 1106 1003 967Q1151 813 1151 551V0H823V551Q823 668 770 723Q721 774 615 774Q510 774 461 723Q408 668 408 551V0Z" />
<glyph unicode="i" glyph-name="i" horiz-adv-x="549" d="M351 1541T405 1487Q459 1433 459 1356Q459 1280 405 1226Q351 1172 274 1172Q198 1172 144 1226Q90 1280 90 1356Q90 1433 144 1487Q198 1541 274 1541Q351 1541 405 1487ZM438 0H110V1072H438V0Z" />
<glyph unicode="j" glyph-name="j" horiz-adv-x="653" d="M455 1541T509 1487Q563 1433 563 1356Q563 1280 509 1226Q455 1172 379 1172Q303 1172 249 1226Q195 1280 195 1356Q195 1433 249 1487Q303 1541 379 1541Q455 1541 509 1487ZM-40 -387V-59H-7V-60Q102
-60 157 -4Q214 53 214 164V1102Q383 1081 542 1102V164Q542 -81 389 -235Q238 -386 -7 -387H-40Z" />
<glyph unicode="k" glyph-name="k" horiz-adv-x="1178" d="M1176 0H784L499 369Q434 454 434 551Q434 648 499 732L784 1102H1176L751 551L1176 0ZM408 0H80V1489H408V0Z" />
<glyph unicode="l" glyph-name="l" horiz-adv-x="528" d="M428 0H100V1489H428V0Z" />
<glyph unicode="m" glyph-name="m" horiz-adv-x="1831" d="M1049 1122T1251 1122Q1480 1122 1619 961Q1751 809 1751 571V0H1423V571Q1423 688 1372 748Q1332 794 1251 794Q1171 794 1130 748Q1079 688 1079 571V0H752V571Q752 688 700 748Q660 794 580 794Q499
794 459 748Q408 688 408 571V0H80V571Q80 809 212 961Q351 1122 580 1122Q782 1122 915 995Q1049 1122 1251 1122Z" />
<glyph unicode="n" glyph-name="n" horiz-adv-x="1262" d="M1182 0H854V571Q854 681 797 739Q741 794 631 794Q521 794 465 739Q408 681 408 571V0H80V571Q80 817 234 970Q385 1122 631 1122Q877 1122 1028 970Q1182 817 1182 571V0Z" />
<glyph unicode="o" glyph-name="o" horiz-adv-x="1222" d="M491 815T429 755Q367 691 367 551Q367 410 429 347Q491 287 611 287Q731 287 793 347Q855 410 855 551Q855 691 793 755Q731 815 611 815Q491 815 429 755ZM365 1122T611 1122Q857 1122 1008 970Q1162
817 1162 551Q1162 285 1008 131Q857 -20 611 -20Q365 -20 214 131Q60 285 60 551Q60 817 214 970Q365 1122 611 1122Z" />
<glyph unicode="p" glyph-name="p" horiz-adv-x="1242" d="M80 -387H408V554Q409 682 465 739Q521 794 631 794Q741 794 797 739Q854 681 854 551Q854 440 797 383Q741 328 631 328Q559 328 504 345V8Q565 0 631 0Q877 0 1028 151Q1182 305 1182 551Q1182 817
1028 970Q877 1122 631 1122Q385 1122 234 970Q81 818 80 551V-387Z" />
<glyph unicode="q" glyph-name="q" horiz-adv-x="1242" d="M1162 -387H834V554Q833 682 777 739Q721 794 611 794Q501 794 445 739Q388 681 388 551Q388 440 445 383Q501 328 611 328Q683 328 738 345V8Q676 0 611 0Q365 0 214 151Q60 305 60 551Q60 817 214 970Q365
1122 611 1122Q857 1122 1008 970Q1160 818 1162 551V-387Z" />
<glyph unicode="r" glyph-name="r" horiz-adv-x="795" d="M779 1102V774H693Q511 774 451 711Q408 666 408 551V0H80V551Q80 796 216 938Q373 1102 693 1102H779Z" />
<glyph unicode="s" glyph-name="s" horiz-adv-x="1085" d="M977 1102H410Q260 1100 156 997Q52 894 52 745Q52 601 155 511Q256 423 410 423H666Q693 423 712 406Q732 388 732 356Q732 298 665 298H83V0H684Q831 1 935 106Q1039 210 1039 357Q1039 501 936 591Q835
679 681 679H425Q398 679 379 696Q359 714 359 745Q359 775 380 791Q397 804 425 804H977V1102Z" />
<glyph unicode="t" glyph-name="t" horiz-adv-x="771" d="M725 0V328H651Q541 328 485 383Q429 439 428 547V805H726V1102H428V1489L100 1389V551Q102 303 254 151Q405 0 650 0H725Z" />
<glyph unicode="u" glyph-name="u" horiz-adv-x="1262" d="M854 1102H1182V531Q1182 285 1028 131Q877 -20 631 -20Q385 -20 234 131Q80 285 80 531V1102H408V531Q408 420 465 363Q521 308 631 308Q741 308 797 363Q854 420 854 531V1102Z" />
<glyph unicode="v" glyph-name="v" horiz-adv-x="1264" d="M363 1102L631 323L900 1102H1254L921 178Q885 90 802 38Q724 -10 631 -10Q537 -10 460 38Q377 90 340 178L10 1102H363Z" />
<glyph unicode="w" glyph-name="w" horiz-adv-x="1707" d="M344 1102L465 408L577 782Q606 879 677 940Q759 1009 853 1009Q936 1009 1007 961Q1094 901 1129 781L1241 408L1363 1102H1697L1533 219Q1511 113 1432 50Q1355 -10 1248 -10Q1164 -10 1087 49Q1011
106 982 207L853 624L724 207Q697 114 632 58Q553 -10 459 -10Q353 -10 276 50Q195 113 172 219L10 1102H344Z" />
<glyph unicode="x" glyph-name="x" horiz-adv-x="1248" d="M20 0L265 418Q312 498 362 549Q317 597 275 672L29 1102H396L626 713L853 1102H1220L968 664Q930 595 896 550Q933 503 975 430L1228 0H860L625 393L389 0H20Z" />
<glyph unicode="y" glyph-name="y" horiz-adv-x="1231" d="M823 85Q707 -4 554 -4Q361 -4 228 135Q80 289 80 551V1102H408V551Q408 434 461 379Q510 328 616 328Q721 328 770 379Q823 434 823 551V1102H1151V40Q1151 -205 998 -359Q847 -510 601 -511H235V-183H601Q711
-183 766 -128Q823 -71 823 40V85Z" />
<glyph unicode="z" glyph-name="z" horiz-adv-x="1126" d="M112 784V1102H823Q896 1102 957 1061Q1018 1020 1046 953Q1076 880 1059 815Q1042 738 981 689L497 318H1061V0H303Q230 0 169 41Q109 81 80 149Q50 222 67 287Q84 363 145 412L629 784H112Z" />
<glyph unicode="{" glyph-name="braceleft" horiz-adv-x="831" d="M751 1289H576Q568 1042 562 998Q541 819 467 744Q540 669 563 490Q572 420 576 199H751V-50Q559 -50 533 -47Q404 -35 343 29Q275 101 275 317V354Q276 378 276 399Q276 476 267 513Q251 587
193 610Q138 631 110 679Q92 710 92 743Q92 766 101 789Q122 847 183 874Q250 904 270 980Q280 1018 280 1090Q280 1112 279 1138Q276 1200 276 1243Q276 1286 279 1310Q291 1403 344 1457Q407 1523 534 1536Q558 1539 751 1539V1289Z" />
<glyph unicode="|" glyph-name="bar" horiz-adv-x="688" d="M180 1539H508V-50H180V1539Z" />
<glyph unicode="}" glyph-name="braceright" horiz-adv-x="831" d="M92 1539Q285 1539 309 1536Q436 1523 499 1457Q552 1403 564 1310Q567 1286 567 1243Q567 1200 564 1138Q563 1112 563 1090Q563 1018 573 980Q593 904 660 874Q721 847 742 789Q751 766 751
743Q751 710 733 679Q705 631 650 610Q592 587 576 513Q567 476 567 399Q567 378 568 354V317Q568 101 500 29Q439 -35 310 -47Q284 -50 92 -50V199H267Q271 420 280 490Q303 669 376 744Q302 819 281 998Q275 1042 267 1289H92V1539Z" />
<glyph unicode="~" glyph-name="asciitilde" horiz-adv-x="1322" d="M1225 595Q1067 480 948 468Q829 456 662 539Q509 616 363 595Q229 576 88 471V782Q229 887 363 906Q509 927 662 850Q829 767 948 779Q1067 791 1225 906V595Z" />
</font>
</defs>
</svg>
